<svg width="734" height="640" viewBox="0 0 734 640" fill="none" xmlns="http://www.w3.org/2000/svg" xmlns:xlink="http://www.w3.org/1999/xlink">
<rect width="734" height="640" fill="url(#pattern0)"/>
<defs>
<pattern id="pattern0" patternContentUnits="objectBoundingBox" width="1" height="1">
<use xlink:href="#image0" transform="translate(-0.00408719) scale(0.0013624 0.0015625)"/>
</pattern>
<image id="image0" width="740" height="640" xlink:href="img/home.png"/>
</defs>
<path d="M222 531.783L442.8 539.899L512 526V548.014L443.5 568L222 556.841V531.783Z" fill="#3595F6" fill-opacity="0.75"/>
<path d="M223 531V506L443.3 509.3L513 506V526L443.7 539L223 531Z" fill="#3595F6" fill-opacity="0.75"/>
<path d="M223 504.833V479H444H513V502.767L445 510L223 504.833Z" fill="#3595F6" fill-opacity="0.75"/>
<path d="M223 480V454.739L444.3 451L512 457.77V480H444" fill="#3595F6" fill-opacity="0.75"/>
<path d="M223 453.935V427.372L444.5 424L513 435.238V457L444 450.155L223 453.935Z" fill="#3595F6" fill-opacity="0.75"/>
<path d="M222 426.569V402.494L443 390L514 413.363V435L443 422.506L222 426.569Z" fill="#3595F6" fill-opacity="0.75"/>
<path d="M222 404.886V379.531L444.2 363L514 392.006V413L443.7 390.992L222 404.886Z" fill="#3595F6" fill-opacity="0.75"/>
<path d="M222 379.063V354.194L444.5 334L514 370.408V391L442 362.45L222 379.063Z" fill="#3595F6" fill-opacity="0.75"/>
<path d="M222 352.922V328.813L445 304L514 348.201V370L444.7 331.826L222 352.922Z" fill="#3595F6" fill-opacity="0.75"/>
<path d="M222 327.656V303.22L444.5 274L514 325.925V347L443.7 303.933L222 327.656Z" fill="#3595F6" fill-opacity="0.75"/>
<path d="M221 303.722V279.418L443.3 246L514 306.051V326L444 274.658L221 303.722Z" fill="#3595F6" fill-opacity="0.75"/>
<path d="M222 278V254L443.2 219L513 283V304L444.3 245.7L222 278Z" fill="#3595F6" fill-opacity="0.75"/>
<path d="M222 253.692V228.418L444.3 190L513 261.073V282L444 217.297L222 253.692Z" fill="#3595F6" fill-opacity="0.75"/>
<path d="M222 227.578V202.259L442.8 158L513 238.01V261L444 186.763L222 227.578Z" fill="#3595F6" fill-opacity="0.75"/>
<path d="M223 203.676V178.444L443 130L513 215.787V239L442.3 158.966L223 203.676Z" fill="#3595F6" fill-opacity="0.75"/>
<path d="M222 178.339V152.904L441.8 100L513 193.905V217L443.3 129.199L222 178.339Z" fill="#3595F6" fill-opacity="0.75"/>
<path d="M222 152.576V126.301L444 69L513 171.778V193L443.7 100.328L222 152.576Z" fill="#3595F6" fill-opacity="0.75"/>
</svg>
